<?xml version="1.0" encoding="UTF-8" standalone="no"?>
<!-- Generator: Adobe Illustrator 25.2.3, SVG Export Plug-In . SVG Version: 6.00 Build 0)  -->

<svg
   version="1.1"
   id="Layer_2"
   x="0px"
   y="0px"
   viewBox="0 0 128 128"
   xml:space="preserve"
   sodipodi:docname="trumpet.svg"
   width="128"
   height="128"
   inkscape:version="1.4.2 (ebf0e940d0, 2025-05-08)"
   inkscape:export-filename="trumpet.png"
   inkscape:export-xdpi="6000"
   inkscape:export-ydpi="6000"
   xmlns:inkscape="http://www.inkscape.org/namespaces/inkscape"
   xmlns:sodipodi="http://sodipodi.sourceforge.net/DTD/sodipodi-0.dtd"
   xmlns="http://www.w3.org/2000/svg"
   xmlns:svg="http://www.w3.org/2000/svg"><defs
   id="defs9" /><sodipodi:namedview
   id="namedview9"
   pagecolor="#ffffff"
   bordercolor="#000000"
   borderopacity="0.25"
   inkscape:showpageshadow="2"
   inkscape:pageopacity="0.0"
   inkscape:pagecheckerboard="0"
   inkscape:deskcolor="#d1d1d1"
   showguides="true"
   inkscape:zoom="5.390625"
   inkscape:cx="59.362319"
   inkscape:cy="62.608696"
   inkscape:window-width="1920"
   inkscape:window-height="1005"
   inkscape:window-x="0"
   inkscape:window-y="0"
   inkscape:window-maximized="1"
   inkscape:current-layer="g10"
   showborder="true"><sodipodi:guide
     position="70.084024,93.569261"
     orientation="0,-1"
     id="guide11"
     inkscape:locked="false" /></sodipodi:namedview>
<g
   id="g9"
   transform="translate(-4.5297456,-31.019146)">
	
		
	
	
	
		
	
	
	
		
	
	
	
		
	
	
	
		
	
		
	
		
	<g
   id="g10"><g
     id="g11"
     transform="matrix(0.67996582,0.63248361,-0.63368223,0.70928017,56.84553,8.4164748)"><rect
       x="48.84"
       y="38.919998"
       transform="matrix(0.7282,-0.6853,0.6853,0.7282,-5.5855,70.8106)"
       style="fill:#ffca28"
       width="75.300003"
       height="7.0500002"
       id="rect1" /><path
       style="fill:none;stroke:#ffca28;stroke-width:7.1779;stroke-miterlimit:10"
       d="M 23.27,101.89 92.88,36.38 c 4.62,-4.35 12.15,-3.85 16.82,1.11 0,0 8.93,8.54 0.09,16.85 l -33.15,31.2 c -4.3,4.05 -10.92,2.73 -15.2,-0.86 -4.4,-3.69 -7.14,-12 0.34,-19.03"
       id="path1" /><path
       style="fill:#ffca28"
       d="M 58.72,63.62 C 35.7,80.95 12.4,71.97 10.84,71.46 6.76,70.12 5.82,71.6 5.3,72.14 c -3.9,3.96 1.2,16.51 13.01,29.99 11.81,13.48 25.7,22.65 29.75,18.84 2.82,-2.66 2.02,-5.17 1.76,-9.42 -0.35,-5.63 -4.85,-25.24 13.78,-42.76 z"
       id="path2" /><ellipse
       transform="matrix(0.7481,-0.6635,0.6635,0.7481,-58.8272,41.9642)"
       style="fill:#dd7341"
       cx="25.860001"
       cy="98.470001"
       rx="4.5900002"
       ry="26.6"
       id="ellipse2" /><path
       style="fill:#fff9c4"
       d="m 53.47,69.23 c -8.4,5.77 -20.48,8.83 -30.87,7.85 -0.95,-0.09 -2.03,-0.16 -2.74,0.48 -1.02,0.92 5.94,7.92 10.54,7.04 10.79,-2.05 19.24,-9.17 23.62,-12.93 0.48,-0.41 1.57,-1.52 2.78,-2.78 0.67,-0.7 -0.23,-1.78 -1.04,-1.23 -0.72,0.5 -1.49,1.03 -2.29,1.57 z"
       id="path3" /><path
       style="fill:#ffca28"
       d="m 94.16,82.97 c -0.6,0.98 -1.66,2.22 -3.47,3.17 -0.87,0.46 -1.95,0.28 -2.62,-0.43 l -30.58,-32.5 5.77,-5.43 30.63,32.55 c 0.67,0.72 0.78,1.8 0.27,2.64 z"
       id="path4" /><ellipse
       transform="matrix(0.7282,-0.6853,0.6853,0.7282,-16.5855,51.644)"
       style="fill:#9e740b"
       cx="56.82"
       cy="46.73"
       rx="3.52"
       ry="1.85"
       id="ellipse4" /><path
       style="fill:#9e740b"
       d="m 60.2,48.39 -1.34,-1.43 -1.92,1.81 1.34,1.43 c -0.97,1.21 -1.39,2.37 -0.93,2.86 0.58,0.62 2.34,-0.1 3.94,-1.6 1.59,-1.5 2.41,-3.22 1.83,-3.83 -0.47,-0.48 -1.66,-0.13 -2.92,0.76 z"
       id="path5" /><path
       style="fill:#ffca28"
       d="m 103.5,74.41 c -0.6,0.98 -1.66,2.22 -3.47,3.17 -0.87,0.46 -1.95,0.28 -2.62,-0.43 l -30.58,-32.5 5.77,-5.43 30.63,32.55 c 0.67,0.72 0.78,1.8 0.27,2.64 z"
       id="path6" /><ellipse
       transform="matrix(0.7282,-0.6853,0.6853,0.7282,-8.1804,55.7183)"
       style="fill:#9e740b"
       cx="66.160004"
       cy="38.169998"
       rx="3.52"
       ry="1.85"
       id="ellipse6" /><path
       style="fill:#9e740b"
       d="m 69.54,39.83 -1.34,-1.43 -1.92,1.81 1.34,1.43 c -0.97,1.21 -1.39,2.37 -0.93,2.86 0.58,0.62 2.34,-0.1 3.94,-1.6 1.59,-1.5 2.41,-3.22 1.83,-3.83 -0.47,-0.48 -1.66,-0.13 -2.92,0.76 z"
       id="path7" /><path
       style="fill:#ffca28"
       d="m 112.42,65.66 c -0.6,0.98 -1.66,2.22 -3.47,3.17 -0.87,0.46 -1.95,0.28 -2.62,-0.43 l -30.59,-32.5 5.77,-5.43 30.63,32.55 c 0.68,0.72 0.79,1.8 0.28,2.64 z"
       id="path8" /><ellipse
       transform="matrix(0.7282,-0.6853,0.6853,0.7282,-1.3131,62.7683)"
       style="fill:#9e740b"
       cx="78.480003"
       cy="33.040001"
       rx="3.96"
       ry="1.54"
       id="ellipse8" /><ellipse
       transform="matrix(0.7282,-0.6853,0.6853,0.7282,0.2404,59.4527)"
       style="fill:#9e740b"
       cx="75.080002"
       cy="29.42"
       rx="3.52"
       ry="1.85"
       id="ellipse9" /><rect
       x="76"
       y="30.1"
       transform="matrix(0.7282,-0.6853,0.6853,0.7282,-0.781,61.6327)"
       style="fill:#9e740b"
       width="2.6400001"
       height="3.4000001"
       id="rect9" /><path
       style="fill:#616161"
       d="m 120.31,9.7 c -4.08,-3.97 -7.05,-4.19 -8.58,-2.62 -0.67,0.69 -0.8,1.78 -0.49,3.04 0.22,0.88 0.2,1.85 -0.43,2.5 l -1.62,1.67 c -1.4,1.44 -0.79,2.79 -0.79,2.79 0,0 1.37,0.53 2.93,1.85 1.36,1.52 2.03,3.03 2.03,3.03 0,0 1.37,0.57 2.77,-0.87 l 1.62,-1.67 c 0.63,-0.65 1.49,-0.57 2.37,-0.38 1.27,0.28 2.36,0.11 3.03,-0.58 1.53,-1.56 1.24,-4.79 -2.84,-8.76 z"
       id="path9" /></g></g>
</g>
</svg>
