<?xml version="1.0" encoding="UTF-8" standalone="no"?>
<!-- Generator: Adobe Illustrator 24.1.2, SVG Export Plug-In . SVG Version: 6.00 Build 0)  -->

<svg
   version="1.1"
   id="Layer_5"
   x="0px"
   y="0px"
   viewBox="0 0 128 128"
   style="enable-background:new 0 0 128 128;"
   xml:space="preserve"
   sodipodi:docname="emoji_u1f389.svg"
   inkscape:version="1.4.2 (ebf0e940d0, 2025-05-08)"
   xmlns:inkscape="http://www.inkscape.org/namespaces/inkscape"
   xmlns:sodipodi="http://sodipodi.sourceforge.net/DTD/sodipodi-0.dtd"
   xmlns="http://www.w3.org/2000/svg"
   xmlns:svg="http://www.w3.org/2000/svg"><defs
   id="defs21">
	
	
	
	
	
	
	
	
	
	
	
		

		
		
	
			
			
			
			
			
			<linearGradient
   id="SVGID_1_"
   gradientUnits="userSpaceOnUse"
   x1="74.3843"
   y1="61.838501"
   x2="44.617001"
   y2="79.698898"
   gradientTransform="translate(0.55652174,-1.484058)">
				<stop
   offset="0.0235"
   style="stop-color:#8F4700"
   id="stop5" />
				<stop
   offset="1"
   style="stop-color:#703E2D"
   id="stop6" />
			</linearGradient>
			
			
			
			
		</defs><sodipodi:namedview
   id="namedview21"
   pagecolor="#ffffff"
   bordercolor="#000000"
   borderopacity="0.25"
   inkscape:showpageshadow="2"
   inkscape:pageopacity="0.0"
   inkscape:pagecheckerboard="0"
   inkscape:deskcolor="#d1d1d1"
   inkscape:zoom="5.390625"
   inkscape:cx="63.907246"
   inkscape:cy="63.907246"
   inkscape:window-width="1920"
   inkscape:window-height="1005"
   inkscape:window-x="0"
   inkscape:window-y="0"
   inkscape:window-maximized="1"
   inkscape:current-layer="Layer_5" />
<path
   id="path1"
   style="fill:#000000"
   d="M 46.974609 48.621094 C 41.606245 48.799717 37.240703 50.644688 34.720703 52.429688 C 31.330703 54.829687 28.570078 60.240234 27.330078 62.990234 C 26.849327 64.056327 26.397915 65.565904 25.884766 66.777344 C 26.036177 68.533676 26.386654 71.275912 27.539062 76.509766 C 28.359063 80.249766 29.699063 84.169766 30.789062 86.759766 C 34.059062 94.549766 38.650781 97.690929 43.300781 100.21094 C 50.682456 104.21012 55.85495 105.17043 56.501953 105.2793 C 59.71472 103.9315 62.682388 102.67982 65.109375 101.64062 C 68.079375 100.37064 72.399766 98.709141 75.509766 94.619141 C 78.269766 90.979141 85.589609 75.519375 70.849609 59.859375 C 62.434609 50.915625 53.876792 48.391436 46.974609 48.621094 z M 48.107422 50.855469 C 53.915652 50.715327 61.42 52.949375 68.40625 61.015625 C 80.25625 74.705625 76.686016 86.835234 72.166016 90.365234 C 67.656016 93.885234 54.107031 95.625078 42.207031 81.705078 C 31.287031 68.935078 35.425781 56.965234 38.675781 53.865234 C 40.097656 52.508984 43.58991 50.964468 48.107422 50.855469 z M 22.767578 74.951172 C 21.203956 78.963456 19.566219 83.192857 18.013672 87.232422 C 18.304059 88.852728 19.582459 94.547078 24.099609 101.44922 C 29.998562 110.44794 38.093941 112.3808 39.054688 112.58203 C 43.368932 110.76945 48.19745 108.75494 52.779297 106.83789 L 50.130859 107.91992 C 50.130859 107.91992 46.230156 107.11023 40.910156 104.49023 C 35.840156 101.99023 30.559219 97.760469 26.699219 89.480469 C 25.029219 85.890469 24.06 82.410391 23.5 79.650391 C 22.973366 77.040119 22.827442 75.632631 22.767578 74.951172 z M 15.722656 93.216797 C 14.009599 97.713303 12.537102 101.63457 11.580078 104.26953 C 11.415784 104.7241 11.210849 105.37176 11.027344 105.87695 L 12.390625 102.15039 C 12.390625 102.15039 13.850781 107.74969 17.050781 111.92969 C 20.677035 116.67903 25.24553 118.22163 25.677734 118.35938 C 25.937308 118.23869 26.193984 118.11897 26.449219 118 C 27.871232 117.33914 30.39522 116.24497 33.541016 114.9082 L 33.320312 115 C 33.320312 115 26.809141 113.01055 20.619141 104.56055 C 17.19241 99.882077 15.956908 94.390361 15.722656 93.216797 z M 10.53125 107.32031 C 8.2911348 113.43764 5.514144 121.17105 7.4492188 123.26953 C 9.1805955 125.14583 15.120912 122.91157 21.074219 120.30664 C 20.357495 120.09978 17.372519 119.03377 14.140625 114.93945 C 11.371817 111.43426 10.560162 107.46497 10.53125 107.32031 z " /><g
   id="g7"
   style="fill:#000000">
				<path
   style="fill:#000000"
   d="m 82.52,88.92 c -4.34,-3.64 -6.65,-2.99 -9.75,-1.7 -4,1.66 -10.29,2.89 -18.83,0 l 2.57,-6.19 c 5.07,1.71 8.74,0.88 11.91,-0.99 4.08,-2.4 9.66,-5.69 18.34,1.6 3.62,3.04 7.33,5.06 10.05,4.14 1.98,-0.66 3.03,-3.61 3.56,-5.96 0.05,-0.21 0.13,-0.81 0.19,-1.34 0.48,-3.67 1.28,-11.59 7.18,-15.64 6.31,-4.33 12.94,-4.33 12.94,-4.33 l 1.2,11.92 c -3.05,-0.45 -5.17,0.17 -6.96,1.16 -6.74,3.75 -0.87,18.15 -11.36,22.99 -10.09,4.69 -18.34,-3.4 -21.04,-5.66 z"
   id="path7" />
			</g><g
   id="g8"
   style="fill:#000000">
				<path
   style="fill:#000000"
   d="M 45.4,73.72 41.06,69.83 C 49.03,60.93 46.93,54.39 45.4,49.63 45.09,48.67 44.8,47.76 44.61,46.89 43.93,43.81 43.79,41.13 44,38.79 40.94,34.98 39.59,30.99 39.5,30.72 37.64,25.09 39.04,19.6 42.25,14.45 48.74,4 60.49,4 60.49,4 l 3.92,10.49 c -2.98,-0.12 -12.75,0.03 -15.75,4.76 -3.79,5.96 -1.3,9.64 -1.12,10.06 0.73,-0.95 1.47,-1.71 2.13,-2.3 4.79,-4.25 8.95,-4.86 11.6,-4.62 2.98,0.27 5.68,1.77 7.61,4.23 2.11,2.7 2.98,6.21 2.31,9.4 -0.65,3.11 -2.72,5.74 -5.83,7.41 -5.43,2.92 -9.95,2.52 -12.98,1.51 0.02,0.07 0.03,0.15 0.05,0.22 0.11,0.5 0.33,1.2 0.59,2.01 1.77,5.48 5.06,14.18 -7.62,26.55 z m 7.35,-37.53 c 0.58,0.42 1.19,0.77 1.82,1.02 2.1,0.84 4.39,0.56 6.99,-0.84 1.53,-0.82 1.71,-1.7 1.77,-1.99 0.18,-0.87 -0.12,-1.98 -0.77,-2.81 -0.57,-0.73 -1.23,-1.11 -2.02,-1.19 -1.5,-0.13 -3.53,0.82 -5.56,2.63 -0.97,0.87 -1.71,1.94 -2.23,3.18 z"
   id="path8" />
			</g><g
   id="g9"
   style="fill:#000000">
				<path
   style="fill:#000000"
   d="m 62.77,75.35 -6.21,-0.17 c 0,0 2.95,-16.66 12.5,-19.46 1.79,-0.52 3.75,-1.05 5.72,-1.34 1.17,-0.18 3.02,-0.45 3.93,-0.79 0.21,-1.57 -0.45,-3.57 -1.19,-5.84 -0.58,-1.76 -1.18,-3.57 -1.5,-5.55 -0.62,-3.86 0.41,-7.27 2.9,-9.62 3.04,-2.85 7.95,-3.76 13.49,-2.5 3.16,0.72 5.49,2.27 7.54,3.63 2.93,1.95 4.64,2.94 8.22,0.53 4.33,-2.92 -1.33,-14.35 -4.34,-20.95 l 11.23,-4.68 c 1.51,3.3 8.8,20.28 3.99,29.97 -1.62,3.26 -4.41,5.42 -8.07,6.23 -7.96,1.78 -12.62,-1.32 -16.02,-3.58 -1.61,-1.07 -3.02,-1.91 -4.55,-2.35 -10.63,-3.03 4.21,12.61 -2.74,19.64 -4.17,4.21 -14.36,5.32 -15.02,5.48 -6.56,1.58 -9.88,11.35 -9.88,11.35 z"
   id="path9" />
			</g><path
   style="fill:#000000"
   d="m 43.99,38.79 c -0.19,2.2 -0.28,3.51 0.29,6.37 2.75,2.02 8.74,2.02 8.74,2.02 -0.26,-0.81 -0.49,-1.51 -0.59,-2.01 -0.02,-0.07 -0.03,-0.15 -0.05,-0.22 -6.09,-3.04 -8.39,-6.16 -8.39,-6.16 z"
   id="path10" />
</svg>
